<svg id="Capa_1" enable-background="new 0 0 512.016 512.016" height="512" viewBox="0 0 512.016 512.016" width="512" xmlns="http://www.w3.org/2000/svg"><g><path d="m452.256 512.016 12.713-.016c7.733-.011 13.938-6.351 13.784-14.081l-.128-6.42c-.979-49.061-20.626-95.188-55.325-129.887l-3.638-3.638c8.164-12.09 13.703-25.759 16.265-40.334.717-4.08-2.009-7.968-6.088-8.685-4.078-.718-7.968 2.008-8.685 6.088-2.743 15.607-9.482 30.034-19.654 42.122-8.252-9.786-14.098-20.88-17.525-32.52-.087-.827-.311-1.642-.672-2.408-3.676-13.912-3.939-28.522-.765-42.551.687-2.251 1.298-4.528 1.832-6.828 3.468-11.139 9.174-21.765 17.132-31.207 9.793 11.651 16.456 25.574 19.362 40.543.789 4.066 4.724 6.719 8.792 5.934 4.066-.79 6.723-4.726 5.934-8.792-3.747-19.301-12.84-37.109-26.295-51.499-4.202-4.494-11.361-4.509-15.578 0-2.619 2.801-5.068 5.723-7.342 8.751-2.593-22.083-12.108-42.71-27.502-59.173-4.209-4.502-11.369-4.501-15.577-.001-1.155 1.155-4.54 5.019-7.342 8.752-2.593-22.083-12.108-42.71-27.502-59.173-4.209-4.502-11.369-4.501-15.577-.001-1.143 1.143-4.475 4.932-7.341 8.75-2.733-23.315-13.142-44.892-29.993-61.742-25.978-25.978-54.023-50.366-83.357-72.487-3.308-2.494-8.011-1.834-10.504 1.473-2.494 3.307-1.834 8.01 1.473 10.504 26.857 20.252 52.611 42.442 76.644 66.028-5.969 6.886-10.891 14.37-14.766 22.244-24.115-24.044-49.173-47.232-74.819-69.237-4.628-3.972-4.807-4.142-5.438-4.536-3.112-1.943-7.244-1.349-9.676 1.509-2.684 3.156-2.301 7.889.854 10.572 30.791 26.185 56.59 50.414 83.039 76.862-1.661 5.359-2.883 10.825-3.667 16.343-18.452-25.924-48.388-43.132-82.321-44.139l-23.485-23.485c-2.929-2.929-7.678-2.929-10.606 0-2.929 2.929-2.929 7.678 0 10.606l23.485 23.485c1.006 33.902 18.185 63.814 44.069 82.271-5.561.788-11.016 2.016-16.324 3.666-26.818-26.818-50.97-52.599-76.81-82.986-2.683-3.156-7.417-3.539-10.572-.855-3.156 2.683-3.539 7.417-.855 10.572 23.123 27.192 47.704 53.872 73.083 79.327-7.938 3.925-15.398 8.881-22.213 14.798-23.587-24.035-45.775-49.789-66.026-76.643-2.494-3.306-7.196-3.966-10.504-1.473-3.307 2.494-3.966 7.197-1.473 10.504 23.587 31.279 50.926 62.175 72.539 83.409 16.843 16.82 38.399 27.211 61.688 29.938-3.764 2.827-7.641 6.234-8.749 7.342-4.5 4.208-4.501 11.367 0 15.577 16.464 15.395 37.089 24.91 59.172 27.503-3.029 2.274-5.95 4.724-8.75 7.343-4.5 4.208-4.501 11.367 0 15.577 7.292 6.819 15.48 12.543 24.336 17.012 3.697 1.866 8.208.381 10.075-3.317s.381-8.208-3.317-10.075c-6.171-3.114-11.966-6.942-17.28-11.411 9.441-7.957 20.065-13.663 31.204-17.131 2.303-.535 4.584-1.147 6.839-1.834 14.027-3.172 28.633-2.91 42.543.766.768.362 1.585.587 2.414.674 11.638 3.428 22.731 9.273 32.515 17.524-9.637 8.103-20.741 14.005-32.609 17.457-1.276.315-2.545.654-3.806 1.017-9.839 2.397-20.14 3.135-30.517 2.077-4.12-.417-7.802 2.58-8.223 6.7-.367 3.595 1.869 6.855 5.181 7.908-3.846 2.875-7.794 6.341-8.933 7.48-4.5 4.208-4.501 11.367 0 15.577 36.849 34.457 91.168 36.696 130.139 10.37l3.635 3.635c28.785 28.785 44.258 67.099 43.569 107.884-.13 7.748 6.059 14.091 13.819 14.091zm-140.076-225.882-9.911-9.911c2.456-2.232 4.874-4.639 7.215-7.215l9.91 9.91c1.139 3.842 2.498 7.609 4.07 11.285-3.676-1.57-7.443-2.929-11.284-4.069zm-50.422-50.422-9.911-9.911c2.519-2.29 4.923-4.694 7.215-7.215l9.91 9.91c1.139 3.842 2.498 7.609 4.07 11.285-3.676-1.57-7.443-2.929-11.284-4.069zm100.844 100.844-9.912-9.912c2.52-2.289 4.924-4.692 7.216-7.214l9.91 9.91c1.139 3.842 2.498 7.609 4.07 11.285-3.676-1.571-7.443-2.929-11.284-4.069zm-11.521-145.331c18.69 22.172 24.967 50.872 18.98 77.418-.7 2.29-1.322 4.607-1.864 6.947-3.553 11.388-9.354 21.953-17.116 31.156-8.251-9.783-14.098-20.873-17.527-32.51-.087-.836-.313-1.66-.68-2.435-3.671-13.896-3.935-28.487-.77-42.501.694-2.274 1.312-4.574 1.851-6.898 3.469-11.128 9.174-21.743 17.126-31.177zm-50.422-50.422c18.69 22.172 24.967 50.872 18.98 77.418-.7 2.29-1.322 4.607-1.864 6.947-3.552 11.385-9.351 21.95-17.116 31.156-8.251-9.783-14.098-20.873-17.527-32.51-.087-.836-.313-1.66-.68-2.435-3.656-13.84-3.933-28.369-.809-42.33.728-2.373 1.373-4.775 1.931-7.203 3.474-11.079 9.165-21.647 17.085-31.043zm-50.419-50.418c19.239 22.854 24.949 52.513 18.454 79.182-.354 1.234-.685 2.476-.993 3.724-3.401 11.731-9.244 22.842-17.461 32.603-27.893-33.196-28.03-82.15 0-115.509zm-112.552 14.042c43.306 3.759 77.914 38.367 81.673 81.673-3.676-.319-7.29-.861-10.827-1.611-1.576-.419-3.164-.802-4.763-1.148-35.787-9.672-62.788-40.951-66.083-78.914zm-14.045 112.55c16.151-13.598 36.381-21.013 57.758-21.013 6.44 0 12.776.673 18.928 1.986 1.517.402 3.047.772 4.59 1.107 12.521 3.373 24.171 9.444 34.239 17.921-9.861 8.302-20.923 14.035-32.322 17.381-1.44.351-2.872.733-4.293 1.145-26.895 6.455-56.351.458-78.9-18.527zm50.42 50.422c9.395-7.92 19.963-13.611 31.043-17.084 2.428-.558 4.831-1.203 7.204-1.932 13.962-3.124 28.492-2.846 42.333.81.773.366 1.595.592 2.429.678 11.637 3.429 22.728 9.276 32.512 17.527-2.73 2.303-2.684 2.124-3.3 2.654-8.518 6.533-17.913 11.342-27.722 14.42-2.427.559-4.829 1.204-7.203 1.933-26.512 5.941-55.158-.345-77.296-19.006zm100.844 100.844c9.419-7.94 20.015-13.639 31.125-17.11 2.338-.542 4.653-1.165 6.944-1.866 14.017-3.166 28.612-2.902 42.511.77.773.366 1.595.592 2.429.678 11.637 3.429 22.728 9.276 32.512 17.527-2.707 2.283-2.693 2.132-3.299 2.654-33.206 25.468-79.727 24.739-112.222-2.653zm130.569 11.187-2.363-2.363c2.491-2.264 4.906-4.674 7.215-7.215l2.366 2.366c31.944 31.945 50.033 74.412 50.934 119.579l.104 5.204-10.28.014c.448-44.454-16.563-86.171-47.976-117.585z"/></g></svg>