<svg width="0" height="0" class="hidden">
  <symbol xmlns="http://www.w3.org/2000/svg" viewBox="0 0 24 24" fill="none" stroke="currentColor" stroke-width="3" stroke-linecap="round" stroke-linejoin="round" id="alert-triangle">
    <path d="M10.29 3.86L1.82 18a2 2 0 0 0 1.71 3h16.94a2 2 0 0 0 1.71-3L13.71 3.86a2 2 0 0 0-3.42 0zM12 9v4m0 4"></path>
  </symbol>
  <symbol xmlns="http://www.w3.org/2000/svg" viewBox="0 0 24 24" fill="none" stroke="currentColor" stroke-width="3" stroke-linecap="round" stroke-linejoin="round" id="arrow-left">
    <path d="M19 12H6m6-7l-7 7 7 7"></path>
  </symbol>
  <symbol xmlns="http://www.w3.org/2000/svg" viewBox="0 0 24 24" fill="none" stroke="currentColor" stroke-width="3" stroke-linecap="round" stroke-linejoin="round" id="arrow-left-circle">
    <circle cx="12" cy="12" r="10"></circle>
    <path d="M12 8l-4 4 4 4m4-4H9"></path>
  </symbol>
  <symbol xmlns="http://www.w3.org/2000/svg" viewBox="0 0 24 24" fill="none" stroke="currentColor" stroke-width="3" stroke-linecap="round" stroke-linejoin="round" id="arrow-right">
    <path d="M5 12h13m-6-7l7 7-7 7"></path>
  </symbol>
  <symbol xmlns="http://www.w3.org/2000/svg" viewBox="0 0 24 24" fill="none" stroke="currentColor" stroke-width="3" stroke-linecap="round" stroke-linejoin="round" id="arrow-right-circle">
    <circle cx="12" cy="12" r="10"></circle>
    <path d="M12 8l4 4-4 4m-4-4h7"></path>
  </symbol>
  <symbol xmlns="http://www.w3.org/2000/svg" viewBox="0 0 24 24" fill="none" stroke="currentColor" stroke-width="3" stroke-linecap="round" stroke-linejoin="round" id="camera">
    <g transform="translate(2 3)">
      <path d="M20 16a2 2 0 0 1-2 2H2a2 2 0 0 1-2-2V5c0-1.1.9-2 2-2h3l2-3h6l2 3h3a2 2 0 0 1 2 2v11z"></path>
      <circle cx="10" cy="10" r="4"></circle>
    </g>
  </symbol>
  <symbol viewBox="0 0 512.016 512.016" xmlns="http://www.w3.org/2000/svg" id="cereales">
    <path d="M452.256 512.016l12.713-.016c7.733-.011 13.938-6.351 13.784-14.081l-.128-6.42c-.979-49.061-20.626-95.188-55.325-129.887l-3.638-3.638c8.164-12.09 13.703-25.759 16.265-40.334a7.5 7.5 0 0 0-14.773-2.597c-2.743 15.607-9.482 30.034-19.654 42.122-8.252-9.786-14.098-20.88-17.525-32.52a7.485 7.485 0 0 0-.672-2.408 89.407 89.407 0 0 1-.765-42.551 103.845 103.845 0 0 0 1.832-6.828c3.468-11.139 9.174-21.765 17.132-31.207a89.453 89.453 0 0 1 19.362 40.543 7.502 7.502 0 0 0 14.726-2.858c-3.747-19.301-12.84-37.109-26.295-51.499-4.202-4.494-11.361-4.509-15.578 0a106.11 106.11 0 0 0-7.342 8.751c-2.593-22.083-12.108-42.71-27.502-59.173-4.209-4.502-11.369-4.501-15.577-.001-1.155 1.155-4.54 5.019-7.342 8.752-2.593-22.083-12.108-42.71-27.502-59.173-4.209-4.502-11.369-4.501-15.577-.001-1.143 1.143-4.475 4.932-7.341 8.75-2.733-23.315-13.142-44.892-29.993-61.742a796.551 796.551 0 0 0-83.357-72.487 7.5 7.5 0 1 0-9.031 11.977 781.602 781.602 0 0 1 76.644 66.028 104.134 104.134 0 0 0-14.766 22.244 1366.146 1366.146 0 0 0-74.819-69.237c-4.628-3.972-4.807-4.142-5.438-4.536a7.5 7.5 0 0 0-8.822 12.081c30.791 26.185 56.59 50.414 83.039 76.862a105.175 105.175 0 0 0-3.667 16.343c-18.452-25.924-48.388-43.132-82.321-44.139l-23.485-23.485a7.5 7.5 0 0 0-10.606 0 7.5 7.5 0 0 0 0 10.606l23.485 23.485c1.006 33.902 18.185 63.814 44.069 82.271a104.245 104.245 0 0 0-16.324 3.666c-26.818-26.818-50.97-52.599-76.81-82.986a7.499 7.499 0 0 0-10.572-.855 7.499 7.499 0 0 0-.855 10.572 1367.87 1367.87 0 0 0 73.083 79.327 104.557 104.557 0 0 0-22.213 14.798 781.882 781.882 0 0 1-66.026-76.643 7.501 7.501 0 0 0-11.977 9.031c23.587 31.279 50.926 62.175 72.539 83.409 16.843 16.82 38.399 27.211 61.688 29.938-3.764 2.827-7.641 6.234-8.749 7.342-4.5 4.208-4.501 11.367 0 15.577 16.464 15.395 37.089 24.91 59.172 27.503a105.777 105.777 0 0 0-8.75 7.343c-4.5 4.208-4.501 11.367 0 15.577a104.664 104.664 0 0 0 24.336 17.012 7.501 7.501 0 0 0 6.758-13.392 89.47 89.47 0 0 1-17.28-11.411c9.441-7.957 20.065-13.663 31.204-17.131a104.974 104.974 0 0 0 6.839-1.834 89.399 89.399 0 0 1 42.543.766 7.497 7.497 0 0 0 2.414.674c11.638 3.428 22.731 9.273 32.515 17.524a89.457 89.457 0 0 1-32.609 17.457 102.97 102.97 0 0 0-3.806 1.017 90.174 90.174 0 0 1-30.517 2.077 7.502 7.502 0 1 0-3.042 14.608c-3.846 2.875-7.794 6.341-8.933 7.48-4.5 4.208-4.501 11.367 0 15.577 36.849 34.457 91.168 36.696 130.139 10.37l3.635 3.635c28.785 28.785 44.258 67.099 43.569 107.884-.13 7.748 6.059 14.091 13.819 14.091zM312.18 286.134l-9.911-9.911a106.972 106.972 0 0 0 7.215-7.215l9.91 9.91a103.556 103.556 0 0 0 4.07 11.285 104.243 104.243 0 0 0-11.284-4.069zm-50.422-50.422l-9.911-9.911a107.22 107.22 0 0 0 7.215-7.215l9.91 9.91a103.556 103.556 0 0 0 4.07 11.285 104.243 104.243 0 0 0-11.284-4.069zm100.844 100.844l-9.912-9.912a106.523 106.523 0 0 0 7.216-7.214l9.91 9.91a103.556 103.556 0 0 0 4.07 11.285 104.031 104.031 0 0 0-11.284-4.069zm-11.521-145.331c18.69 22.172 24.967 50.872 18.98 77.418-.7 2.29-1.322 4.607-1.864 6.947-3.553 11.388-9.354 21.953-17.116 31.156-8.251-9.783-14.098-20.873-17.527-32.51a7.5 7.5 0 0 0-.68-2.435 89.377 89.377 0 0 1-.77-42.501 104.559 104.559 0 0 0 1.851-6.898c3.469-11.128 9.174-21.743 17.126-31.177zm-50.422-50.422c18.69 22.172 24.967 50.872 18.98 77.418-.7 2.29-1.322 4.607-1.864 6.947-3.552 11.385-9.351 21.95-17.116 31.156-8.251-9.783-14.098-20.873-17.527-32.51a7.5 7.5 0 0 0-.68-2.435 89.384 89.384 0 0 1-.809-42.33 103.917 103.917 0 0 0 1.931-7.203c3.474-11.079 9.165-21.647 17.085-31.043zM250.24 90.385c19.239 22.854 24.949 52.513 18.454 79.182a103.047 103.047 0 0 0-.993 3.724c-3.401 11.731-9.244 22.842-17.461 32.603-27.893-33.196-28.03-82.15 0-115.509zm-112.552 14.042c43.306 3.759 77.914 38.367 81.673 81.673a89.48 89.48 0 0 1-10.827-1.611 104.803 104.803 0 0 0-4.763-1.148c-35.787-9.672-62.788-40.951-66.083-78.914zm-14.045 112.55c16.151-13.598 36.381-21.013 57.758-21.013 6.44 0 12.776.673 18.928 1.986 1.517.402 3.047.772 4.59 1.107 12.521 3.373 24.171 9.444 34.239 17.921-9.861 8.302-20.923 14.035-32.322 17.381-1.44.351-2.872.733-4.293 1.145-26.895 6.455-56.351.458-78.9-18.527zm50.42 50.422c9.395-7.92 19.963-13.611 31.043-17.084a103.391 103.391 0 0 0 7.204-1.932 89.396 89.396 0 0 1 42.333.81 7.463 7.463 0 0 0 2.429.678c11.637 3.429 22.728 9.276 32.512 17.527-2.73 2.303-2.684 2.124-3.3 2.654a89.584 89.584 0 0 1-27.722 14.42 104.232 104.232 0 0 0-7.203 1.933c-26.512 5.941-55.158-.345-77.296-19.006zm100.844 100.844c9.419-7.94 20.015-13.639 31.125-17.11a104.005 104.005 0 0 0 6.944-1.866 89.393 89.393 0 0 1 42.511.77 7.463 7.463 0 0 0 2.429.678c11.637 3.429 22.728 9.276 32.512 17.527-2.707 2.283-2.693 2.132-3.299 2.654a89.368 89.368 0 0 1-112.222-2.653zm130.569 11.187l-2.363-2.363a106.984 106.984 0 0 0 7.215-7.215l2.366 2.366c31.944 31.945 50.033 74.412 50.934 119.579l.104 5.204-10.28.014c.448-44.454-16.563-86.171-47.976-117.585z"></path>
  </symbol>
  <symbol xmlns="http://www.w3.org/2000/svg" viewBox="0 0 24 24" fill="none" stroke="currentColor" stroke-width="3" stroke-linecap="round" stroke-linejoin="round" id="chevron-left">
    <path d="M15 18l-6-6 6-6"></path>
  </symbol>
  <symbol xmlns="http://www.w3.org/2000/svg" viewBox="0 0 24 24" fill="none" stroke="currentColor" stroke-width="3" stroke-linecap="round" stroke-linejoin="round" id="chevron-right">
    <path d="M9 18l6-6-6-6"></path>
  </symbol>
  <symbol viewBox="0 0 64 64" xmlns="http://www.w3.org/2000/svg" id="frutas">
    <path d="M43 57h-1v2h1c5.07 0 9.733-2.333 12.792-6.399l-1.598-1.202C51.516 54.958 47.436 57 43 57zM7 43v-2H5v2c0 5.07 2.332 9.733 6.398 12.792l1.203-1.599C9.042 51.516 7 47.436 7 43zm-2-6h2v2H5z"></path>
    <path d="M63 12v-2h-3c-4.07 0-7.146 1.478-9.164 2.89A4.962 4.962 0 0 0 48 12c-2.57 0-4.668 1.956-4.945 4.454A4.942 4.942 0 0 0 41 16c-2.57 0-4.668 1.956-4.945 4.454A4.942 4.942 0 0 0 34 20c-.096 0-.185.023-.279.028-2.337-2.794-5.587-4.548-9.17-4.94.503-2.586 1.17-3.395 1.181-3.407L25 11l-.707-.707c-.157.157-1.133 1.266-1.76 4.73a14.089 14.089 0 0 0-3.909.681c-1.881-2.128-3.413-4.354-4.388-5.896A5.992 5.992 0 0 0 9.157 7h-.163c-.213 0-.424.012-.631.034C7.521 5.706 7 4.401 7 4c0-1.654-1.346-3-3-3S1 2.346 1 4c0 1.431.936 4.194 2.51 6.583A5.96 5.96 0 0 0 3 12.995v2.756c0 .225.013.443.037.666.15 1.355.766 5.83 2.71 10.614C5.496 27.023 5.256 27 5 27c-2.206 0-4 1.794-4 4v12c0 11.028 8.972 20 20 20h22c11.028 0 20-8.972 20-20 0-2.206-1.794-4-4-4-4.968 0-9.306-.285-13.162-.761.057-.224.098-.453.124-.684A4.947 4.947 0 0 0 48 38c2.757 0 5-2.243 5-5 0-1.641-.806-3.088-2.031-4C52.194 28.088 53 26.641 53 25s-.806-3.088-2.031-4C52.194 20.088 53 18.641 53 17c0-.972-.29-1.872-.772-2.64A14.118 14.118 0 0 1 55 12.923V16c0 3.86 3.141 7 7 7h1v-5a6.995 6.995 0 0 0-3.382-5.981c.129-.003.25-.019.382-.019zm-2 6v2.899A5.009 5.009 0 0 1 57 16v-2.899c2.279.464 4 2.484 4 4.899zM32.125 35.326A2.964 2.964 0 0 1 31 33c0-1.654 1.346-3 3-3s3 1.346 3 3a2.999 2.999 0 0 1-2.676 2.973 71.49 71.49 0 0 1-2.199-.647zM31 25c0-1.654 1.346-3 3-3s3 1.346 3 3-1.346 3-3 3-3-1.346-3-3zm7 4c0-1.654 1.346-3 3-3s3 1.346 3 3-1.346 3-3 3-3-1.346-3-3zm3-11c1.654 0 3 1.346 3 3s-1.346 3-3 3-3-1.346-3-3 1.346-3 3-3zm-18.985 2.923C20.714 20.73 20 20.202 20 20h-2c0 1.71 2.149 3 5 3s5-1.29 5-3h-2c0 .201-.703.722-1.986.919.029-1.498.116-2.774.239-3.848a11.887 11.887 0 0 1 7.354 3.566C30.062 21.489 29 23.115 29 25c0 1.641.806 3.088 2.031 4-1.225.912-2.031 2.359-2.031 4 0 .458.071.908.192 1.341-2.692-.958-5.086-1.96-7.316-2.899-3.719-1.567-7.11-2.979-10.791-3.773a11.942 11.942 0 0 1 11.163-10.633 43.743 43.743 0 0 0-.233 3.887zM3 4a1.001 1.001 0 0 1 2 0c0 .95.683 2.425 1.376 3.61a6.026 6.026 0 0 0-1.637 1.168C3.605 6.839 3 4.865 3 4zm2.025 12.198A4.19 4.19 0 0 1 5 15.75v-2.756A3.999 3.999 0 0 1 8.994 9h.163a4 4 0 0 1 3.389 1.879c.937 1.479 2.365 3.566 4.124 5.629a13.931 13.931 0 0 0-7.558 10.803 31.256 31.256 0 0 0-1.132-.137c-2.149-4.867-2.804-9.605-2.955-10.976zM43 61H21c-9.925 0-18-8.075-18-18v-8.556A3.959 3.959 0 0 0 5 35c4.715 0 8.711 1.683 13.772 3.814C27.432 42.461 38.208 47 59 47c.581 0 1.129-.13 1.628-.354C58.937 54.829 51.676 61 43 61zm18-18c0 1.103-.897 2-2 2-20.388 0-30.958-4.452-39.453-8.029C14.279 34.752 10.118 33 5 33c-1.103 0-2-.897-2-2s.897-2 2-2c5.927 0 10.642 1.986 16.101 4.285C29.262 36.722 39.42 41 59 41c1.103 0 2 .897 2 2zm-22.989-6.105A2.997 2.997 0 0 1 41 34c1.654 0 3 1.346 3 3 0 .334-.073.656-.18.968a79.244 79.244 0 0 1-5.809-1.073zM51 33c0 1.654-1.346 3-3 3s-3-1.346-3-3 1.346-3 3-3 3 1.346 3 3zm0-8c0 1.654-1.346 3-3 3s-3-1.346-3-3 1.346-3 3-3 3 1.346 3 3zm-3-5c-1.654 0-3-1.346-3-3s1.346-3 3-3 3 1.346 3 3-1.346 3-3 3z"></path>
    <path d="M38 57h2v2h-2z"></path>
  </symbol>
  <symbol xmlns="http://www.w3.org/2000/svg" viewBox="0 0 496.544 496.544" id="frutos-secos">
    <path d="M408.272 48h-38.56l8-48h-66.888l8 48h-38.552c-48.52 0-88 39.48-88 88v8h-14.56l8-48h-66.888l8 48H88.272c-48.52 0-88 39.48-88 88v32c0 10.416 6.704 19.216 16 22.528v75.856c0 49.744 31.288 94.888 77.856 112.36l58.144 21.8 58.144-21.808c41.288-15.488 70.512-52.744 76.624-95.664l57.232 21.472 58.144-21.808c46.568-17.464 77.856-62.616 77.856-112.36V190.52c9.288-3.312 16-12.112 16-22.528v-32c0-48.52-39.48-87.992-88-87.992zm-49.448-32l-5.328 32h-18.448l-5.328-32h29.104zm-192 96l-5.328 32h-18.448l-5.328-32h29.104zm105.448 250.376c0 43.112-27.12 82.24-67.488 97.376l-52.512 19.696-52.52-19.696c-40.36-15.128-67.48-54.264-67.48-97.376v-74.384h240v74.384zm8-90.376h-256c-4.416 0-8-3.584-8-8v-32c0-39.704 32.296-72 72-72h128c39.704 0 72 32.296 72 72v32c0 4.408-3.584 8-8 8zm200-104c0 4.416-3.584 8-8 8h-24v16h16v74.384c0 43.112-27.12 82.24-67.488 97.376l-52.512 19.688-52.52-19.696c-1.184-.448-2.312-.984-3.48-1.472v-75.76c9.288-3.312 16-12.112 16-22.528v-32c0-14.408-3.552-27.984-9.712-40h137.712v-16H284.104c-5.04-6.088-10.912-11.448-17.392-16h5.56v-16h-16v9.712c-12.016-6.168-25.592-9.712-40-9.712h-8v-8c0-39.704 32.296-72 72-72h128c39.704 0 72 32.296 72 72V168z"></path>
    <path d="M256.272 80h16v16h-16zm32 0h16v16h-16zm32 0h16v16h-16zm32 0h16v16h-16zm32 0h16v16h-16zm32 0h16v16h-16zm-128 64h16v16h-16zm32 0h16v16h-16zm32 0h16v16h-16zm32 0h16v16h-16zm32 0h16v16h-16zm32 0h16v16h-16zm-224-32h16v16h-16zm32 0h16v16h-16zm32 0h16v16h-16zm32 0h16v16h-16zm32 0h16v16h-16zm32 0h16v16h-16zm32 0h16v16h-16zm32 0h16v16h-16zM105.376 444.776l4.072 1.52 5.608-14.984-4.064-1.52c-27.944-10.472-46.72-37.568-46.72-67.416v-2.384h-16v2.384c0 36.48 22.944 69.6 57.104 82.4zM64.272 176h16v16h-16zm32 0h16v16h-16zm32 0h16v16h-16zm32 0h16v16h-16zm32 0h16v16h-16zm32 0h16v16h-16zm-192 64h16v16h-16zm32 0h16v16h-16zm32 0h16v16h-16zm32 0h16v16h-16zm32 0h16v16h-16zm32 0h16v16h-16zm32 0h16v16h-16zm32 0h16v16h-16zm-224-32h16v16h-16zm32 0h16v16h-16zm32 0h16v16h-16zm32 0h16v16h-16zm32 0h16v16h-16zm32 0h16v16h-16zm32 0h16v16h-16zm32 0h16v16h-16zm-208 120h16v16h-16z"></path>
  </symbol>
  <symbol xmlns="http://www.w3.org/2000/svg" viewBox="0 0 24 24" fill="none" stroke="currentColor" stroke-width="3" stroke-linecap="round" stroke-linejoin="round" id="grid">
    <path d="M3 3h7v7H3zm11 0h7v7h-7zm0 11h7v7h-7zM3 14h7v7H3z"></path>
  </symbol>
  <symbol xmlns="http://www.w3.org/2000/svg" viewBox="0 0 24 24" fill="none" stroke="currentColor" stroke-width="3" stroke-linecap="round" stroke-linejoin="round" id="home">
    <path d="M20 9v11a2 2 0 0 1-2 2H6a2 2 0 0 1-2-2V9"></path>
    <path d="M9 22V12h6v10M2 10.6L12 2l10 8.6"></path>
  </symbol>
  <symbol viewBox="0 0 512 512" xmlns="http://www.w3.org/2000/svg" id="legumbres">
    <path d="M493.628 199.641c-23.244-27.572-49.837-23.162-75.553-18.9-13.255 2.198-26.962 4.469-41.257 2.924a103.683 103.683 0 0 1-5.635-.769c6.966-10.032 12.33-20.766 15.998-32.037a7.515 7.515 0 0 0-14.291-4.651c-3.8 11.677-9.705 22.726-17.571 32.911-7.004-2.145-13.606-4.723-20.092-7.259-25.48-9.963-49.582-19.361-82.575 5.688-9.588-11.123-21.726-18.87-35.589-22.478-42.14-10.96-60.72 7.778-80.39 27.621l-.921.929c-18.025-26.417-20.387-57.032-5.401-78.214 19.775-27.952 38.528-26.834 64.177-24.548.361 11.928 4.073 21.188 11.104 27.569 8.459 7.677 20.323 9.537 31.362 9 3.87-.188 7.723-.66 11.538-1.324 19.902-3.46 33.067-11.034 39.131-22.512 4.47-8.463 4.826-18.754 1.132-30.066 21.785-10.418 38.139-17.212 60.076-2.619 18.585 12.36 29.036 33.511 28.676 58.032a7.514 7.514 0 0 0 7.516 7.625 7.514 7.514 0 0 0 7.511-7.404c.438-29.729-12.458-55.522-35.38-70.767-30.027-19.969-54.325-8.3-77.824 2.986-12.111 5.817-24.634 11.831-38.792 14.345-15.606 2.771-29.65 1.515-43.233.299-27.829-2.492-54.114-4.844-79.264 30.703-10.279 14.529-14.448 32.27-12.057 51.303 2.006 15.967 8.483 31.818 18.818 46.219-6.269 5.763-13.152 11.301-21.414 16.085-12.444 7.204-25.895 10.679-38.904 14.039-25.239 6.519-51.338 13.26-61.421 47.884C-1.5 288.059-.974 304.7 4.622 320.378c1.449 4.06 6.178 6.089 10.124 4.343 3.55-1.571 5.334-5.742 4.03-9.395-4.526-12.681-4.956-26.121-1.244-38.869 7.367-25.294 24.247-30.644 47.618-36.722 4.468 11.029 11.374 18.667 20.247 22.255 3.879 1.569 8.058 2.351 12.529 2.351 9.399 0 20.077-3.463 31.899-10.364 16.813-9.816 26.182-21.094 27.848-33.524 1.261-9.411-1.869-18.883-9.282-28.234 18.138-18.283 31.752-31.226 64.887-22.602 17.213 4.478 31.194 17.313 39.367 36.141 11.475 26.435 9.437 60.367-5.192 89.36-11.877 2.081-23.667 1.773-35.128 1.463-26.058-.703-53.004-1.427-72.253 29.069-8.868 14.048-12.947 30.343-11.796 47.122.007.098.018.196.025.293-37.949 3.721-74.097-9.046-95.641-34.175a7.512 7.512 0 0 0-10.596-.813 7.513 7.513 0 0 0-.814 10.595c21.939 25.589 56.722 40.055 94.184 40.055 5.049 0 10.15-.284 15.272-.817 2.737 10.859 7.573 21.517 14.315 31.417 13.636 20.025 33.787 35.628 58.275 45.125 17.111 6.636 35.898 9.986 55.501 9.986 11.205 0 22.679-1.095 34.255-3.296 20.38-3.876 38.999-10.807 55.339-20.601a7.514 7.514 0 0 0 2.582-10.308 7.513 7.513 0 0 0-10.309-2.582c-14.818 8.881-31.783 15.182-50.42 18.726-29.06 5.527-57.248 3.474-81.514-5.936-21.638-8.392-39.373-22.075-51.288-39.572-17.35-25.478-19.093-54.337-4.663-77.199 14.062-22.279 31.764-22.762 55.905-22.152 1.25 11.834 5.779 21.082 13.317 26.98 6.313 4.94 14.488 7.415 24.429 7.415 6.158 0 12.996-.95 20.485-2.852 18.87-4.793 30.989-13.049 36.021-24.535 3.809-8.697 3.415-18.664-1.128-29.698 22.479-12.565 39.137-21.248 68.606-3.814 15.658 9.263 25.609 25.903 28.021 46.855 3.518 30.56-9.854 64.431-34.897 88.394a7.516 7.516 0 0 0-.234 10.625 7.514 7.514 0 0 0 10.624.234c20.754-19.859 34.205-45.01 38.566-70.859 45.04-10.901 80.868-40.945 94.199-79.394 10.262-29.602 5.5-59.206-13.065-81.228zM243.206 80.52c11.663-2.071 22.224-6.162 31.865-10.516 1.523 5.463 1.977 11.508-.696 16.567-3.724 7.05-13.55 12.141-28.417 14.725-14.381 2.5-24.549 1.156-30.225-3.998-3.608-3.275-5.654-8.384-6.117-15.236 10.327.608 21.525.6 33.59-1.542zM142.778 218.456c-1.018 7.599-7.925 15.182-20.53 22.54-13.031 7.608-23.825 10.048-31.217 7.06-5.304-2.146-8.855-7.06-11.212-12.218 10.177-2.885 20.888-6.566 31.139-12.502 10.605-6.139 19.171-13.351 26.674-20.473 4.064 5.538 5.793 10.763 5.146 15.593zm265.958-21.033c-.065 5.671-1.321 11.601-5.301 15.711-5.547 5.726-16.405 7.866-31.401 6.192-14.504-1.622-23.892-5.758-27.901-12.293-2.548-4.154-3.084-9.631-1.612-16.339 9.745 3.471 20.498 6.596 32.681 7.913 11.777 1.276 23.061.302 33.534-1.184zm-119.565 115.07c-3.076 7.023-11.809 12.406-25.954 15.998-14.625 3.715-25.674 3.081-31.953-1.832-4.506-3.526-6.562-9.229-7.403-14.837 10.578.036 21.889-.545 33.38-3.42 11.888-2.973 22.112-7.54 31.289-12.314 2.376 6.444 2.596 11.943.641 16.405zm203.323-36.551c-11.168 32.211-40.778 57.758-78.486 68.384.103-4.743-.102-9.479-.643-14.178-2.962-25.735-15.498-46.358-35.299-58.072-37.477-22.171-60.509-9.286-84.891 4.357-8.443 4.725-17.097 9.557-26.9 13.344 11.732-30.148 11.974-62.782.156-90.005a92.996 92.996 0 0 0-5.057-9.979c25.975-19.906 43.457-13.67 66.998-4.475-2.989 11.552-2.014 21.481 2.951 29.574 6.558 10.689 19.694 17.207 39.042 19.369 3.868.432 7.536.649 11.007.649 14.541-.001 25.567-3.79 32.859-11.318 6.658-6.874 9.878-16.655 9.496-28.549 23.83-3.909 41.431-5.856 58.411 14.286 15.063 17.868 18.839 42.148 10.356 66.613z"></path>
  </symbol>
  <symbol xmlns="http://www.w3.org/2000/svg" viewBox="0 0 24 24" fill="none" stroke="currentColor" stroke-width="3" stroke-linecap="round" stroke-linejoin="round" id="lock">
    <rect x="3" y="11" width="18" height="11" rx="2" ry="2"></rect>
    <path d="M7 11V7a5 5 0 0 1 10 0v4"></path>
  </symbol>
  <symbol xmlns="http://www.w3.org/2000/svg" viewBox="0 0 24 24" fill="none" stroke="currentColor" stroke-width="3" stroke-linecap="round" stroke-linejoin="round" id="mail">
    <path d="M4 4h16c1.1 0 2 .9 2 2v12c0 1.1-.9 2-2 2H4c-1.1 0-2-.9-2-2V6c0-1.1.9-2 2-2z"></path>
    <path d="M22 6l-10 7L2 6"></path>
  </symbol>
  <symbol xmlns="http://www.w3.org/2000/svg" viewBox="0 0 24 24" fill="none" stroke="currentColor" stroke-width="3" stroke-linecap="round" stroke-linejoin="round" id="map-marker">
    <circle cx="12" cy="10" r="3"></circle>
    <path d="M12 21.7C17.3 17 20 13 20 10a8 8 0 1 0-16 0c0 3 2.7 6.9 8 11.7z"></path>
  </symbol>
  <symbol xmlns="http://www.w3.org/2000/svg" viewBox="0 0 24 24" fill="none" stroke="currentColor" stroke-width="3" stroke-linecap="round" stroke-linejoin="round" id="menu">
    <path d="M3 12h18M3 6h18M3 18h18"></path>
  </symbol>
  <symbol xmlns="http://www.w3.org/2000/svg" viewBox="0 0 24 24" fill="none" stroke="currentColor" stroke-width="3" stroke-linecap="round" stroke-linejoin="round" id="message-square">
    <path d="M21 15a2 2 0 0 1-2 2H7l-4 4V5a2 2 0 0 1 2-2h14a2 2 0 0 1 2 2z"></path>
  </symbol>
  <symbol xmlns="http://www.w3.org/2000/svg" viewBox="0 0 24 24" fill="none" stroke="currentColor" stroke-width="3" stroke-linecap="round" stroke-linejoin="round" id="minus">
    <path d="M5 12h14"></path>
  </symbol>
  <symbol xmlns="http://www.w3.org/2000/svg" viewBox="0 0 24 24" fill="none" stroke="currentColor" stroke-width="3" stroke-linecap="round" stroke-linejoin="round" id="minus-circle">
    <circle cx="12" cy="12" r="10"></circle>
    <path d="M8 12h8"></path>
  </symbol>
  <symbol xmlns="http://www.w3.org/2000/svg" viewBox="0 0 24 24" fill="none" stroke="currentColor" stroke-width="3" stroke-linecap="round" stroke-linejoin="round" id="more-horizontal">
    <circle cx="12" cy="12" r="1"></circle>
    <circle cx="19" cy="12" r="1"></circle>
    <circle cx="5" cy="12" r="1"></circle>
  </symbol>
  <symbol xmlns="http://www.w3.org/2000/svg" viewBox="0 0 24 24" fill="none" stroke="currentColor" stroke-width="3" stroke-linecap="round" stroke-linejoin="round" id="more-vertical">
    <circle cx="12" cy="12" r="1"></circle>
    <circle cx="12" cy="5" r="1"></circle>
    <circle cx="12" cy="19" r="1"></circle>
  </symbol>
  <symbol xmlns="http://www.w3.org/2000/svg" viewBox="0 0 24 24" fill="none" stroke="currentColor" stroke-width="3" stroke-linecap="round" stroke-linejoin="round" id="phone">
    <path d="M22 16.92v3a2 2 0 0 1-2.18 2 19.79 19.79 0 0 1-8.63-3.07 19.5 19.5 0 0 1-6-6 19.79 19.79 0 0 1-3.07-8.67A2 2 0 0 1 4.11 2h3a2 2 0 0 1 2 1.72 12.84 12.84 0 0 0 .7 2.81 2 2 0 0 1-.45 2.11L8.09 9.91a16 16 0 0 0 6 6l1.27-1.27a2 2 0 0 1 2.11-.45 12.84 12.84 0 0 0 2.81.7A2 2 0 0 1 22 16.92z"></path>
  </symbol>
  <symbol xmlns="http://www.w3.org/2000/svg" viewBox="0 0 24 24" fill="none" stroke="currentColor" stroke-width="3" stroke-linecap="round" stroke-linejoin="round" id="plus">
    <path d="M12 5v14m-7-7h14"></path>
  </symbol>
  <symbol xmlns="http://www.w3.org/2000/svg" viewBox="0 0 24 24" fill="none" stroke="currentColor" stroke-width="3" stroke-linecap="round" stroke-linejoin="round" id="plus-circle">
    <circle cx="12" cy="12" r="10"></circle>
    <path d="M12 8v8m-4-4h8"></path>
  </symbol>
  <symbol xmlns="http://www.w3.org/2000/svg" viewBox="0 0 24 24" fill="none" stroke="currentColor" stroke-width="3" stroke-linecap="round" stroke-linejoin="round" id="refresh-cw">
    <path d="M21.5 2v6h-6m-13 14v-6h6M2 11.5a10 10 0 0 1 18.8-4.3m1.2 5.3a10 10 0 0 1-18.8 4.2"></path>
  </symbol>
  <symbol xmlns="http://www.w3.org/2000/svg" viewBox="0 0 24 24" fill="none" stroke="currentColor" stroke-width="3" stroke-linecap="round" stroke-linejoin="round" id="search">
    <circle cx="11" cy="11" r="8"></circle>
    <path d="M21 21l-4.35-4.35"></path>
  </symbol>
  <symbol xmlns="http://www.w3.org/2000/svg" viewBox="0 0 24 24" fill="none" stroke="currentColor" stroke-width="3" stroke-linecap="round" stroke-linejoin="round" id="settings">
    <circle cx="12" cy="12" r="3"></circle>
    <path d="M19.4 15a1.65 1.65 0 0 0 .33 1.82l.06.06a2 2 0 0 1 0 2.83 2 2 0 0 1-2.83 0l-.06-.06a1.65 1.65 0 0 0-1.82-.33 1.65 1.65 0 0 0-1 1.51V21a2 2 0 0 1-2 2 2 2 0 0 1-2-2v-.09A1.65 1.65 0 0 0 9 19.4a1.65 1.65 0 0 0-1.82.33l-.06.06a2 2 0 0 1-2.83 0 2 2 0 0 1 0-2.83l.06-.06a1.65 1.65 0 0 0 .33-1.82 1.65 1.65 0 0 0-1.51-1H3a2 2 0 0 1-2-2 2 2 0 0 1 2-2h.09A1.65 1.65 0 0 0 4.6 9a1.65 1.65 0 0 0-.33-1.82l-.06-.06a2 2 0 0 1 0-2.83 2 2 0 0 1 2.83 0l.06.06a1.65 1.65 0 0 0 1.82.33H9a1.65 1.65 0 0 0 1-1.51V3a2 2 0 0 1 2-2 2 2 0 0 1 2 2v.09a1.65 1.65 0 0 0 1 1.51 1.65 1.65 0 0 0 1.82-.33l.06-.06a2 2 0 0 1 2.83 0 2 2 0 0 1 0 2.83l-.06.06a1.65 1.65 0 0 0-.33 1.82V9a1.65 1.65 0 0 0 1.51 1H21a2 2 0 0 1 2 2 2 2 0 0 1-2 2h-.09a1.65 1.65 0 0 0-1.51 1z"></path>
  </symbol>
  <symbol xmlns="http://www.w3.org/2000/svg" viewBox="0 0 24 24" fill="none" stroke="currentColor" stroke-width="3" stroke-linecap="round" stroke-linejoin="round" id="share">
    <circle cx="18" cy="5" r="3"></circle>
    <circle cx="6" cy="12" r="3"></circle>
    <circle cx="18" cy="19" r="3"></circle>
    <path d="M8.59 13.51l6.83 3.98m-.01-10.98l-6.82 3.98"></path>
  </symbol>
  <symbol xmlns="http://www.w3.org/2000/svg" viewBox="0 0 24 24" fill="none" stroke="currentColor" stroke-width="3" stroke-linecap="round" stroke-linejoin="round" id="star">
    <path d="M12 2l3.09 6.26L22 9.27l-5 4.87 1.18 6.88L12 17.77l-6.18 3.25L7 14.14 2 9.27l6.91-1.01L12 2z"></path>
  </symbol>
  <symbol xmlns="http://www.w3.org/2000/svg" viewBox="0 0 24 24" fill="none" stroke="currentColor" stroke-width="3" stroke-linecap="round" stroke-linejoin="round" id="trash">
    <path d="M3 6h18m-2 0v14a2 2 0 0 1-2 2H7a2 2 0 0 1-2-2V6m3 0V4a2 2 0 0 1 2-2h4a2 2 0 0 1 2 2v2m-6 5v6m4-6v6"></path>
  </symbol>
  <symbol xmlns="http://www.w3.org/2000/svg" viewBox="0 0 512 512" id="tuberculos">
    <path d="M313.664 288.075c-.059-.002-.117-.002-.175-.002-5.443 0-9.902 4.365-9.995 9.83l-.007.431c-.047 5.523 4.393 10.039 9.916 10.086h.087c5.483 0 9.952-4.422 9.999-9.916l.004-.259c.094-5.522-4.306-10.076-9.829-10.17zm5.533-30.753a171.742 171.742 0 0 0-3.604-13.351c-11.701-37.294-30.761-71.05-56.649-100.331-3.657-4.137-9.978-4.525-14.117-.868-4.138 3.658-4.526 9.98-.868 14.117 24.015 27.162 41.694 58.476 52.55 93.072a152.227 152.227 0 0 1 3.182 11.79c1.054 4.641 5.178 7.789 9.744 7.789.733 0 1.478-.081 2.223-.25 5.387-1.224 8.762-6.581 7.539-11.968zm-35.995 93.062h-5.508c-5.523 0-10.001 4.478-10.001 10.001s4.478 10.001 10.001 10.001h5.508c5.523 0 10.001-4.479 10.001-10.001 0-5.523-4.478-10.001-10.001-10.001zm-76.493 5.275h-5.508c-5.523 0-10.001 4.478-10.001 10.001s4.478 10.001 10.001 10.001h5.508c5.523 0 10.001-4.479 10.001-10.001 0-5.522-4.477-10.001-10.001-10.001zm-17.002 42.549H184.2c-5.523 0-10.001 4.478-10.001 10.001s4.478 10.001 10.001 10.001h5.508c5.523 0 10.001-4.478 10.001-10.001s-4.478-10.001-10.002-10.001zm-54.43-42.549h-5.509c-5.523 0-10.001 4.478-10.001 10.001s4.478 10.001 10.001 10.001h5.509c5.523 0 10.001-4.479 10.001-10.001 0-5.522-4.478-10.001-10.001-10.001zm118.928 35.814h-5.508c-5.523 0-10.001 4.478-10.001 10.001s4.478 10.001 10.001 10.001h5.508c5.523 0 10.001-4.478 10.001-10.001s-4.477-10.001-10.001-10.001z"></path>
    <path d="M501.763 139.461c-15.219-46.647-58.409-77.987-107.475-77.987-38.692 0-74.265 19.443-95.155 52.01l-6.659 10.38a321.461 321.461 0 0 0-4.826-5.603l-28.946-32.74c-24.441-27.645-58.104-45.068-94.787-49.057-36.683-3.99-73.306 5.787-103.119 27.53-60.993 44.483-78.701 127.428-41.19 192.94l6.814 11.9a438.835 438.835 0 0 1 43.542 106.324c13.978 53.107 58.159 92.284 112.558 99.807a152.343 152.343 0 0 0 20.895 1.443c23.633-.001 46.898-5.543 68.253-16.369a151.576 151.576 0 0 0 29.378-19.479l25.114 9.796c15.999 6.241 32.676 9.375 49.429 9.375 12.479-.001 25.002-1.74 37.307-5.232 28.827-8.179 53.6-25.149 71.637-49.074C502.246 381.934 512 352.793 512 323.37V203.85c0-21.902-3.445-43.565-10.237-64.389zM203.044 456.376c-5.897 0-11.842-.401-17.783-1.223-46.375-6.415-84.039-39.813-95.954-85.085a458.883 458.883 0 0 0-45.528-111.172l-6.814-11.9C4.527 190.346 19.841 118.62 72.583 80.156c22.807-16.634 49.225-24.743 75.44-24.743 35.407 0 70.441 14.795 95.694 43.359l28.946 32.74c27.605 31.221 47.927 67.214 60.402 106.978 15.453 49.247 10.253 103.543-14.266 148.963-23.039 42.682-68.069 68.927-115.755 68.923zM491.999 323.37h-.001c0 25.106-8.323 49.97-23.436 70.015-31.231 41.424-86.798 57.19-135.133 38.338l-16.697-6.513a151.7 151.7 0 0 0 19.67-28.255c13.551-25.106 21.802-52.233 24.522-80.632 2.72-28.399-.231-56.601-8.773-83.821-10.456-33.325-26.096-64.156-46.581-92.005l10.4-16.213c17.194-26.806 46.473-42.808 78.319-42.808 40.385 0 75.934 25.796 88.459 64.189a187.305 187.305 0 0 1 9.251 58.186V323.37z"></path>
    <path d="M389.582 350.384h-5.508c-5.523 0-10.001 4.478-10.001 10.001s4.478 10.001 10.001 10.001h5.508c5.523 0 10.001-4.479 10.001-10.001 0-5.523-4.478-10.001-10.001-10.001zm-17.002 42.548h-5.508c-5.523 0-10.001 4.478-10.001 10.001s4.479 10.001 10.001 10.001h5.508c5.523 0 10.001-4.478 10.001-10.001s-4.478-10.001-10.001-10.001zm64.498-6.736h-5.508c-5.523 0-10.001 4.479-10.001 10.001 0 5.523 4.479 10.001 10.001 10.001h5.508c5.523 0 10.001-4.478 10.001-10.001 0-5.522-4.479-10.001-10.001-10.001zm-42.79-284.718c-5.523 0-10.001 4.478-10.001 10.001s4.478 10.001 10.001 10.001h.096c5.523 0 9.953-4.479 9.953-10.001 0-5.523-4.527-10.001-10.049-10.001zm69.443 50.39c-4.554-13.962-13.064-26.084-24.608-35.054-4.361-3.388-10.644-2.602-14.033 1.761-3.389 4.362-2.601 10.645 1.761 14.034 8.376 6.509 14.554 15.315 17.865 25.464a147.383 147.383 0 0 1 7.278 45.778v46.856c0 5.523 4.478 10.001 10.001 10.001s10.001-4.478 10.001-10.001V203.85c0-17.683-2.781-35.172-8.265-51.982z"></path>
  </symbol>
  <symbol xmlns="http://www.w3.org/2000/svg" viewBox="0 0 24 24" fill="none" stroke="currentColor" stroke-width="3" stroke-linecap="round" stroke-linejoin="round" id="unlock">
    <rect x="3" y="11" width="18" height="11" rx="2" ry="2"></rect>
    <path d="M7 11V7a5 5 0 0 1 9.9-1"></path>
  </symbol>
  <symbol xmlns="http://www.w3.org/2000/svg" viewBox="0 0 24 24" fill="none" stroke="currentColor" stroke-width="3" stroke-linecap="round" stroke-linejoin="round" id="user">
    <path d="M20 21v-2a4 4 0 0 0-4-4H8a4 4 0 0 0-4 4v2"></path>
    <circle cx="12" cy="7" r="4"></circle>
  </symbol>
  <symbol viewBox="0 0 480 480.014" xmlns="http://www.w3.org/2000/svg" id="verduras-hortalizas">
    <path d="M19.594 279.598a60.635 60.635 0 0 0-3.051 29.074 62.406 62.406 0 0 0 28.191 42.765l41.914 22.801a136.22 136.22 0 0 1 61.192 68.903l12.719 31.84a8.003 8.003 0 0 0 7.433 5.035h104a8 8 0 0 0 8-8 141.202 141.202 0 0 1 63-117.723l4.856-3.2a63.811 63.811 0 0 0 23.464-28l56.977-36.296-8.594-13.488-43.703 27.8a59.348 59.348 0 0 0-3.488-21.144 24.591 24.591 0 0 1 3.2-23.613 78.966 78.966 0 0 0 16.089-42.32l36.535-23.266-8.594-13.504-28.726 18.273a79.144 79.144 0 0 0-15.59-36.21 23.879 23.879 0 0 1-4.129-23.27c.406-.985.656-2.024 1.008-3.04l39.582-22.007-7.774-13.985-28.195 15.68a66.41 66.41 0 0 0-.55-9.77c-3.965-26.523-23.91-47.835-50.114-53.55a66.193 66.193 0 0 0-9.957-1.281c-8-.782-14.965-5.79-18.258-13.122-.87-1.703-1.918-3.261-2.918-4.863a47.898 47.898 0 0 1 41.457-13.512 47.903 47.903 0 0 1 35.23 25.696 38.128 38.128 0 0 0 31.634 21.777 48.01 48.01 0 0 1 38.03 22.106 47.99 47.99 0 0 1 4.056 43.796 39.58 39.58 0 0 0 6.234 39.051 63.76 63.76 0 0 1 13.238 38.985 63.063 63.063 0 0 1-13.351 39.007 39.193 39.193 0 0 0-5.282 38.047 44.574 44.574 0 0 1 2.235 21.344 45.8 45.8 0 0 1-20 30.984L385.68 360.2a152.314 152.314 0 0 0-68.414 77.024l-10.7 26.793h-10.574v16h16a8.003 8.003 0 0 0 7.434-5.036l12.71-31.832a136.268 136.268 0 0 1 61.2-68.91l42.527-23.199a62.146 62.146 0 0 0 27.586-42.48 60.577 60.577 0 0 0-3.074-29.047 23.374 23.374 0 0 1 2.898-22.7c22.247-28.707 22.313-68.812.168-97.597a23.576 23.576 0 0 1-4.097-23.2 63.83 63.83 0 0 0-56.063-87.921 22.4 22.4 0 0 1-18.242-13.086A63.8 63.8 0 0 0 283.992 17.71 63.833 63.833 0 0 0 229.13.938a63.832 63.832 0 0 0-46.176 34.042 22.398 22.398 0 0 1-18.266 13.122 66.309 66.309 0 0 0-9.96 1.28c-26.2 5.72-46.137 27.032-50.102 53.552a66.412 66.412 0 0 0-.555 9.77L75.88 97.023l-7.774 13.984 39.575 22.008c.36 1.015.61 2.054 1.015 3.047a23.845 23.845 0 0 1-4.129 23.261 79.144 79.144 0 0 0-15.59 36.211L60.29 177.262l-8.594 13.504L88.23 214.03a78.966 78.966 0 0 0 16.09 42.32 24.575 24.575 0 0 1 3.2 23.606 59.397 59.397 0 0 0-3.528 21.152l-43.71-27.84-8.587 13.489 56.977 36.289a63.76 63.76 0 0 0 23.465 28l4.855 3.2a141.148 141.148 0 0 1 62.75 109.769h-26.324l-10.723-26.817a152.282 152.282 0 0 0-68.406-77.015L52.992 337.78a46.074 46.074 0 0 1-20.594-31.277 44.616 44.616 0 0 1 2.211-21.356 39.259 39.259 0 0 0-5.257-38.093 63.055 63.055 0 0 1-13.36-39.04A63.709 63.709 0 0 1 29.2 169.07a39.524 39.524 0 0 0 6.297-38.984 47.867 47.867 0 0 1 3.89-43.898 47.875 47.875 0 0 1 38.126-22.11 38.156 38.156 0 0 0 31.68-21.785 47.913 47.913 0 0 1 42.8-26.277 47.128 47.128 0 0 1 20.61 4.672l6.918-14.403a63.132 63.132 0 0 0-27.528-6.27 63.803 63.803 0 0 0-57.039 34.993 22.407 22.407 0 0 1-18.289 13.094 63.955 63.955 0 0 0-9.977 1.28A64.064 64.064 0 0 0 23.445 82.02a64.071 64.071 0 0 0-2.765 54.105 23.567 23.567 0 0 1-4.168 23.2c-22.082 28.773-22 68.812.207 97.488a23.436 23.436 0 0 1 2.875 22.785zm126.27 61.382l-4.856-3.238a45.838 45.838 0 0 1-20.582-31.328 44.175 44.175 0 0 1 2.117-21.062 40.8 40.8 0 0 0-5.504-38.707c-17.473-22.922-17.39-54.72.2-77.551a39.869 39.869 0 0 0 6.265-39.078 47.664 47.664 0 0 1-3.031-24.875c2.96-19.852 17.886-35.805 37.496-40.086a50.008 50.008 0 0 1 7.543-.977 38.096 38.096 0 0 0 31.687-21.832 48.002 48.002 0 0 1 85.602 0 38.104 38.104 0 0 0 31.687 21.832 50.5 50.5 0 0 1 7.543.969c19.61 4.289 34.532 20.242 37.496 40.094 1.227 8.414.18 17-3.03 24.875a39.869 39.869 0 0 0 6.265 39.078c17.59 22.832 17.672 54.629.199 77.55a40.807 40.807 0 0 0-5.504 38.715 44.106 44.106 0 0 1 2.117 21.047 45.819 45.819 0 0 1-20.582 31.336l-4.855 3.238a157.14 157.14 0 0 0-69.946 123.036h-16.199v-92.442l77.352-69.601-10.703-11.887-66.649 59.969v-74.48l77.352-69.602-10.703-11.887-66.649 59.969v-74.403l61.266-53.597-10.531-12-50.735 44.36v-102.4h-16v102.4l-50.734-44.392-10.531 12 61.265 53.614v74.402l-66.648-60-10.703 11.887 77.351 69.648v74.48l-66.648-60-10.703 11.887 77.351 69.633v92.442h-16.199a157.147 157.147 0 0 0-69.93-123.036zm0 0"></path>
  </symbol>
  <symbol xmlns="http://www.w3.org/2000/svg" viewBox="0 0 24 24" fill="none" stroke="currentColor" stroke-width="3" stroke-linecap="round" stroke-linejoin="round" id="x">
    <path d="M18 6L6 18M6 6l12 12"></path>
  </symbol>
</svg>