<svg id="Layer_5" enable-background="new 0 0 64 64" height="512" viewBox="0 0 64 64" width="512" xmlns="http://www.w3.org/2000/svg"><g><path d="m43 57h-1v2h1c5.07 0 9.733-2.333 12.792-6.399l-1.598-1.202c-2.678 3.559-6.758 5.601-11.194 5.601z"/><path d="m7 43v-2h-2v2c0 5.07 2.332 9.733 6.398 12.792l1.203-1.599c-3.559-2.677-5.601-6.757-5.601-11.193z"/><path d="m5 37h2v2h-2z"/><path d="m63 12v-2h-3c-4.07 0-7.146 1.478-9.164 2.89-.807-.559-1.782-.89-2.836-.89-2.57 0-4.668 1.956-4.945 4.454-.628-.286-1.321-.454-2.055-.454-2.57 0-4.668 1.956-4.945 4.454-.628-.286-1.321-.454-2.055-.454-.096 0-.185.023-.279.028-2.337-2.794-5.587-4.548-9.17-4.94.503-2.586 1.17-3.395 1.181-3.407l-.732-.681-.707-.707c-.157.157-1.133 1.266-1.76 4.73-1.362.045-2.673.278-3.909.681-1.881-2.128-3.413-4.354-4.388-5.896-1.115-1.758-3.013-2.808-5.079-2.808h-.163c-.213 0-.424.012-.631.034-.842-1.328-1.363-2.633-1.363-3.034 0-1.654-1.346-3-3-3s-3 1.346-3 3c0 1.431.936 4.194 2.51 6.583-.326.739-.51 1.554-.51 2.412v2.756c0 .225.013.443.037.666.15 1.355.766 5.83 2.71 10.614-.251-.008-.491-.031-.747-.031-2.206 0-4 1.794-4 4v12c0 11.028 8.972 20 20 20h22c11.028 0 20-8.972 20-20 0-2.206-1.794-4-4-4-4.968 0-9.306-.285-13.162-.761.057-.224.098-.453.124-.684.624.281 1.311.445 2.038.445 2.757 0 5-2.243 5-5 0-1.641-.806-3.088-2.031-4 1.225-.912 2.031-2.359 2.031-4s-.806-3.088-2.031-4c1.225-.912 2.031-2.359 2.031-4 0-.972-.29-1.872-.772-2.64.767-.513 1.692-1.021 2.772-1.437v3.077c0 3.86 3.141 7 7 7h1v-5c0-2.535-1.359-4.753-3.382-5.981.129-.003.25-.019.382-.019zm-2 6v2.899c-2.279-.464-4-2.485-4-4.899v-2.899c2.279.464 4 2.484 4 4.899zm-28.875 17.326c-.71-.572-1.125-1.407-1.125-2.326 0-1.654 1.346-3 3-3s3 1.346 3 3c0 1.533-1.167 2.81-2.676 2.973-.755-.21-1.49-.425-2.199-.647zm-1.125-10.326c0-1.654 1.346-3 3-3s3 1.346 3 3-1.346 3-3 3-3-1.346-3-3zm7 4c0-1.654 1.346-3 3-3s3 1.346 3 3-1.346 3-3 3-3-1.346-3-3zm3-11c1.654 0 3 1.346 3 3s-1.346 3-3 3-3-1.346-3-3 1.346-3 3-3zm-18.985 2.923c-1.301-.193-2.015-.721-2.015-.923h-2c0 1.71 2.149 3 5 3s5-1.29 5-3h-2c0 .201-.703.722-1.986.919.029-1.498.116-2.774.239-3.848 2.807.289 5.391 1.539 7.354 3.566-1.545.852-2.607 2.478-2.607 4.363 0 1.641.806 3.088 2.031 4-1.225.912-2.031 2.359-2.031 4 0 .458.071.908.192 1.341-2.692-.958-5.086-1.96-7.316-2.899-3.719-1.567-7.11-2.979-10.791-3.773.635-5.797 5.33-10.274 11.163-10.633-.121 1.114-.205 2.402-.233 3.887zm-19.015-16.923c0-.551.448-1 1-1s1 .449 1 1c0 .95.683 2.425 1.376 3.61-.61.298-1.164.691-1.637 1.168-1.134-1.939-1.739-3.913-1.739-4.778zm2.025 12.198c-.016-.15-.025-.297-.025-.448v-2.756c0-2.202 1.792-3.994 3.994-3.994h.163c1.377 0 2.644.703 3.389 1.879.937 1.479 2.365 3.566 4.124 5.629-4.072 2.057-6.99 6.041-7.558 10.803-.372-.054-.752-.096-1.132-.137-2.149-4.867-2.804-9.605-2.955-10.976zm37.975 44.802h-22c-9.925 0-18-8.075-18-18v-8.556c.591.344 1.268.556 2 .556 4.715 0 8.711 1.683 13.772 3.814 8.66 3.647 19.436 8.186 40.228 8.186.581 0 1.129-.13 1.628-.354-1.691 8.183-8.952 14.354-17.628 14.354zm18-18c0 1.103-.897 2-2 2-20.388 0-30.958-4.452-39.453-8.029-5.268-2.219-9.429-3.971-14.547-3.971-1.103 0-2-.897-2-2s.897-2 2-2c5.927 0 10.642 1.986 16.101 4.285 8.161 3.437 18.319 7.715 37.899 7.715 1.103 0 2 .897 2 2zm-22.989-6.105c.056-1.605 1.371-2.895 2.989-2.895 1.654 0 3 1.346 3 3 0 .334-.073.656-.18.968-2.08-.306-4.006-.669-5.809-1.073zm12.989-3.895c0 1.654-1.346 3-3 3s-3-1.346-3-3 1.346-3 3-3 3 1.346 3 3zm0-8c0 1.654-1.346 3-3 3s-3-1.346-3-3 1.346-3 3-3 3 1.346 3 3zm-3-5c-1.654 0-3-1.346-3-3s1.346-3 3-3 3 1.346 3 3-1.346 3-3 3z"/><path d="m38 57h2v2h-2z"/></g></svg>